#Comment line ignore any data following # character 
#Hierarchical Translation and Rotation (.htr) file 
[Header]	
#Header keywords are followed by a single value 
FileType HTR		#Single word string
DataType HTRS		#Translation followed by rotation and scale data
FileVersion 1		#integer
NumSegments 64		#integer
NumFrames 3		#integer
DataFrameRate 30		#integer, data frame rate in this file
EulerRotationOrder ZYX
CalibrationUnits mm
RotationUnits Degrees
GlobalAxisofGravity Y
BoneLengthAxis Y
ScaleFactor 1.00
[SegmentNames&Hierarchy]
#CHILD	PARENT
Pinger_Root GLOBAL
Pelvis Pinger_Root
L_Hip Pelvis
R_Hip Pelvis
Rear_Leg01 Pelvis
Spine1 Pelvis
L_Leg01 L_Hip
L_Leg02 L_Leg01
L_Leg03 L_Leg02
L_Foot L_Leg03
L_Toe1_01 L_Foot
L_Toe2_01 L_Foot
L_Toe3_01 L_Foot
planeAlignerLeft L_Foot
L_Toe1_02 L_Toe1_01
L_Toe1_03 L_Toe1_02
L_Toe2_02 L_Toe2_01
L_Toe2_03 L_Toe2_02
L_Toe3_02 L_Toe3_01
L_Toe3_03 L_Toe3_02
planeLockWeightLeft planeAlignerLeft
R_Leg01 R_Hip
R_Leg02 R_Leg01
R_Leg03 R_Leg02
R_Foot R_Leg03
planeAlignerRight R_Foot
R_Toe1_01 R_Foot
R_Toe2_01 R_Foot
R_Toe3_01 R_Foot
planeLockWeightRight planeAlignerRight
R_Toe1_02 R_Toe1_01
R_Toe1_03 R_Toe1_02
R_Toe2_02 R_Toe2_01
R_Toe2_03 R_Toe2_02
R_Toe3_02 R_Toe3_01
R_Toe3_03 R_Toe3_02
Rear_Leg02 Rear_Leg01
Rear_Leg03 Rear_Leg02
Rear_Leg04 Rear_Leg03
Rear_Foot Rear_Leg04
planeAlignerCenter Rear_Foot
Rear_Toe1_01 Rear_Foot
Rear_Toe2_01 Rear_Foot
Rear_Toe3_01 Rear_Foot
planeLockWeightCenter planeAlignerCenter
Rear_Toe1_02 Rear_Toe1_01
Rear_Toe1_03 Rear_Toe1_02
Rear_Toe2_02 Rear_Toe2_01
Rear_Toe2_03 Rear_Toe2_02
Rear_Toe3_02 Rear_Toe3_01
Rear_Toe3_03 Rear_Toe3_02
Back_Bone Spine1
Head Spine1
Motor_Bone Back_Bone
Ping_Mechanism Back_Bone
BN_LookIK Head
bottomMouth Head
L_Mouth01 Head
L_mouthFront Head
mouthGun Head
R_Mouth01 Head
R_mouthFront Head
TopMouth Head
weapon_bone Head
[BasePosition]
#SegmentName Tx, Ty, Tz, Rx, Ry, Rz, BoneLength
Pinger_Root 0.000000 0.000000 0.000000 -90.000000 0.000000 0.000000 10.000000 
Pelvis 0.000000 0.000000 0.000000 0.000000 0.000000 0.000000 10.000000 
L_Hip 0.000000 0.000000 0.000000 0.000000 0.000000 0.000000 10.000000 
R_Hip 0.000000 0.000000 0.000000 0.000000 0.000000 0.000000 10.000000 
Rear_Leg01 0.000000 0.000000 0.000000 0.000000 0.000000 0.000000 10.000000 
Spine1 0.000000 0.000000 0.000000 0.000000 0.000000 0.000000 10.000000 
L_Leg01 0.000000 0.000000 0.000000 0.000000 0.000000 0.000000 10.000000 
L_Leg02 0.000000 0.000000 0.000000 0.000000 0.000000 0.000000 10.000000 
L_Leg03 0.000000 0.000000 0.000000 0.000000 0.000000 0.000000 10.000000 
L_Foot 0.000000 0.000000 0.000000 0.000000 0.000000 0.000000 10.000000 
L_Toe1_01 0.000000 0.000000 0.000000 0.000000 0.000000 0.000000 10.000000 
L_Toe2_01 0.000000 0.000000 0.000000 0.000000 0.000000 0.000000 10.000000 
L_Toe3_01 0.000000 0.000000 0.000000 0.000000 0.000000 0.000000 10.000000 
planeAlignerLeft 0.000000 0.000000 0.000000 0.000000 0.000000 0.000000 10.000000 
L_Toe1_02 0.000000 0.000000 0.000000 0.000000 0.000000 0.000000 10.000000 
L_Toe1_03 0.000000 0.000000 0.000000 0.000000 0.000000 0.000000 10.000000 
L_Toe2_02 0.000000 0.000000 0.000000 0.000000 0.000000 0.000000 10.000000 
L_Toe2_03 0.000000 0.000000 0.000000 0.000000 0.000000 0.000000 10.000000 
L_Toe3_02 0.000000 0.000000 0.000000 0.000000 0.000000 0.000000 10.000000 
L_Toe3_03 0.000000 0.000000 0.000000 0.000000 0.000000 0.000000 10.000000 
planeLockWeightLeft 0.000000 0.000000 0.000000 0.000000 0.000000 0.000000 10.000000 
R_Leg01 0.000000 0.000000 0.000000 0.000000 0.000000 0.000000 10.000000 
R_Leg02 0.000000 0.000000 0.000000 0.000000 0.000000 0.000000 10.000000 
R_Leg03 0.000000 0.000000 0.000000 0.000000 0.000000 0.000000 10.000000 
R_Foot 0.000000 0.000000 0.000000 0.000000 0.000000 0.000000 10.000000 
planeAlignerRight 0.000000 0.000000 0.000000 0.000000 0.000000 0.000000 10.000000 
R_Toe1_01 0.000000 0.000000 0.000000 0.000000 0.000000 0.000000 10.000000 
R_Toe2_01 0.000000 0.000000 0.000000 0.000000 0.000000 0.000000 10.000000 
R_Toe3_01 0.000000 0.000000 0.000000 0.000000 0.000000 0.000000 10.000000 
planeLockWeightRight 0.000000 0.000000 0.000000 0.000000 0.000000 0.000000 10.000000 
R_Toe1_02 0.000000 0.000000 0.000000 0.000000 0.000000 0.000000 10.000000 
R_Toe1_03 0.000000 0.000000 0.000000 0.000000 0.000000 0.000000 10.000000 
R_Toe2_02 0.000000 0.000000 0.000000 0.000000 0.000000 0.000000 10.000000 
R_Toe2_03 0.000000 0.000000 0.000000 0.000000 0.000000 0.000000 10.000000 
R_Toe3_02 0.000000 0.000000 0.000000 0.000000 0.000000 0.000000 10.000000 
R_Toe3_03 0.000000 0.000000 0.000000 0.000000 0.000000 0.000000 10.000000 
Rear_Leg02 0.000000 0.000000 0.000000 0.000000 0.000000 0.000000 10.000000 
Rear_Leg03 0.000000 0.000000 0.000000 0.000000 0.000000 0.000000 10.000000 
Rear_Leg04 0.000000 0.000000 0.000000 0.000000 0.000000 0.000000 10.000000 
Rear_Foot 0.000000 0.000000 0.000000 0.000000 0.000000 0.000000 10.000000 
planeAlignerCenter 0.000000 0.000000 0.000000 0.000000 0.000000 0.000000 10.000000 
Rear_Toe1_01 0.000000 0.000000 0.000000 0.000000 0.000000 0.000000 10.000000 
Rear_Toe2_01 0.000000 0.000000 0.000000 0.000000 0.000000 0.000000 10.000000 
Rear_Toe3_01 0.000000 0.000000 0.000000 0.000000 0.000000 0.000000 10.000000 
planeLockWeightCenter 0.000000 0.000000 0.000000 0.000000 0.000000 0.000000 10.000000 
Rear_Toe1_02 0.000000 0.000000 0.000000 0.000000 0.000000 0.000000 10.000000 
Rear_Toe1_03 0.000000 0.000000 0.000000 0.000000 0.000000 0.000000 10.000000 
Rear_Toe2_02 0.000000 0.000000 0.000000 0.000000 0.000000 0.000000 10.000000 
Rear_Toe2_03 0.000000 0.000000 0.000000 0.000000 0.000000 0.000000 10.000000 
Rear_Toe3_02 0.000000 0.000000 0.000000 0.000000 0.000000 0.000000 10.000000 
Rear_Toe3_03 0.000000 0.000000 0.000000 0.000000 0.000000 0.000000 10.000000 
Back_Bone 0.000000 0.000000 0.000000 0.000000 0.000000 0.000000 10.000000 
Head 0.000000 0.000000 0.000000 0.000000 0.000000 0.000000 10.000000 
Motor_Bone 0.000000 0.000000 0.000000 0.000000 0.000000 0.000000 10.000000 
Ping_Mechanism 0.000000 0.000000 0.000000 0.000000 0.000000 0.000000 10.000000 
BN_LookIK 0.000000 0.000000 0.000000 0.000000 0.000000 0.000000 10.000000 
bottomMouth 0.000000 0.000000 0.000000 0.000000 0.000000 0.000000 10.000000 
L_Mouth01 0.000000 0.000000 0.000000 0.000000 0.000000 0.000000 10.000000 
L_mouthFront 0.000000 0.000000 0.000000 0.000000 0.000000 0.000000 10.000000 
mouthGun 0.000000 0.000000 0.000000 0.000000 0.000000 0.000000 10.000000 
R_Mouth01 0.000000 0.000000 0.000000 0.000000 0.000000 0.000000 10.000000 
R_mouthFront 0.000000 0.000000 0.000000 0.000000 0.000000 0.000000 10.000000 
TopMouth 0.000000 0.000000 0.000000 0.000000 0.000000 0.000000 10.000000 
weapon_bone 0.000000 0.000000 0.000000 0.000000 0.000000 0.000000 10.000000 
#Beginning of Data. Separated by tabs
#Fr	Tx	Ty	Tz	Rx	Ry	Rz	SF
[Pinger_Root]
33 0.000000 0.000000 0.000000 -0.000075 -0.000000 -0.000020 0.000000
34 0.000000 0.000000 0.000000 -0.000075 -0.000000 -0.000020 0.000000
35 0.000000 0.000000 0.000000 -0.000075 -0.000000 -0.000020 0.000000
[Pelvis]
33 -1678.612427 1611.916748 3553.315186 -105.993477 -80.578964 97.403618 4247.595215
34 -1688.125610 1608.628052 3552.170654 -105.423096 -79.626442 96.943230 4249.161133
35 -1696.735107 1605.605469 3545.114258 -101.390434 -78.797096 93.003044 4245.552246
[L_Hip]
33 5.766392 125.831482 872.656799 160.158691 -45.484905 122.312202 881.701050
34 5.766392 125.831482 872.656799 160.158691 -45.484905 122.312202 881.701050
35 5.766392 125.831482 872.656799 160.158691 -45.484894 122.312187 881.701050
[R_Hip]
33 5.765438 125.836372 -872.654907 38.087841 49.812687 125.703735 881.699829
34 5.765438 125.836372 -872.654907 38.087830 49.812672 125.703735 881.699829
35 5.765438 125.836372 -872.654907 38.087830 49.812672 125.703735 881.699829
[Rear_Leg01]
33 -192.298416 -925.602966 -0.001907 153.237122 5.054033 -148.878769 945.367432
34 -192.298416 -925.602966 -0.001907 153.310944 4.921694 -150.003525 945.367432
35 -192.298416 -925.602966 -0.001907 153.750381 5.309622 -151.157776 945.367432
[Spine1]
33 290.604584 5.007505 0.000477 35.660423 -29.806843 -11.856930 290.647736
34 290.604584 5.007505 0.000477 35.297260 -31.144089 -10.705929 290.647736
35 290.604584 5.007505 0.000477 35.359585 -31.957481 -10.466024 290.647736
[L_Leg01]
33 761.932007 -0.002384 -0.069261 43.412350 -6.880882 1.621910 761.932068
34 761.932007 -0.002384 -0.069261 42.843193 -7.612505 3.103401 761.932068
35 761.932007 -0.002384 -0.069261 41.677174 -8.492008 4.052068 761.932068
[L_Leg02]
33 1441.140503 -0.000954 -0.000715 7.637785 -0.065612 -174.213943 1441.140503
34 1441.140503 -0.000954 -0.000715 7.741975 -0.060342 -175.176193 1441.140503
35 1441.140503 -0.000954 -0.000715 7.800417 -0.059989 -175.726669 1441.140503
[L_Leg03]
33 1686.963989 -0.000715 -0.000954 -0.043359 0.020542 122.157127 1686.963989
34 1686.963989 -0.000715 -0.000954 -0.043481 0.020777 122.177048 1686.963989
35 1686.963989 -0.000715 -0.000954 -0.043604 0.021012 122.196960 1686.963989
[L_Foot]
33 3041.570068 -30.715107 11.297464 -39.030743 22.151711 72.539574 3041.746094
34 3041.570068 -30.715107 11.297464 -39.080414 22.040976 72.592026 3041.746094
35 3041.570068 -30.715107 11.297464 -38.903973 21.984182 72.695160 3041.746094
[L_Toe1_01]
33 -188.216690 -224.732346 -21.137953 89.330788 -2.396121 -161.427643 293.899567
34 -188.216690 -224.732346 -21.137953 89.330788 -2.396120 -161.427643 293.899567
35 -188.216690 -224.732346 -21.137953 89.330780 -2.396119 -161.427643 293.899567
[L_Toe2_01]
33 200.746536 -219.926590 148.838394 -78.791496 -10.652695 -43.374847 332.896027
34 200.746536 -219.926590 148.838394 -78.791496 -10.652695 -43.374847 332.896027
35 200.746536 -219.926590 148.838394 -78.791496 -10.652695 -43.374847 332.896027
[L_Toe3_01]
33 188.832520 -219.859131 -191.078659 -109.186691 26.104874 -48.222931 347.140900
34 188.832520 -219.859131 -191.078659 -109.186691 26.104874 -48.222931 347.140900
35 188.832520 -219.859131 -191.078659 -109.186691 26.104877 -48.222935 347.140900
[planeAlignerLeft]
33 0.812531 -811.448792 -0.314951 0.000000 -90.000000 -90.001900 811.449280
34 0.812531 -811.448792 -0.314951 0.000000 -90.000000 -90.001900 811.449280
35 0.812531 -811.448792 -0.314951 0.000000 -90.000000 -90.001900 811.449280
[L_Toe1_02]
33 413.761139 0.000477 0.000000 0.000203 -25.410625 -0.000182 413.761139
34 413.761139 0.000477 0.000000 0.000203 -25.410625 -0.000182 413.761139
35 413.761139 0.000477 0.000000 0.000203 -25.410625 -0.000182 413.761139
[L_Toe1_03]
33 464.317322 0.000358 -0.000089 0.004933 62.473137 0.004933 464.317322
34 464.317322 0.000358 -0.000089 0.004933 62.473137 0.004933 464.317322
35 464.317322 0.000358 -0.000089 0.004933 62.473137 0.004933 464.317322
[L_Toe2_02]
33 342.235809 -0.000477 0.000238 -0.000101 -70.104240 0.000129 342.235809
34 342.235809 -0.000477 0.000238 -0.000101 -70.104240 0.000129 342.235809
35 342.235809 -0.000477 0.000238 -0.000101 -70.104240 0.000129 342.235809
[L_Toe2_03]
33 420.210846 -0.000715 0.000000 0.016997 82.081528 0.016997 420.210846
34 420.210846 -0.000715 0.000000 0.016997 82.081528 0.016997 420.210846
35 420.210846 -0.000715 0.000000 0.016997 82.081482 0.016997 420.210846
[L_Toe3_02]
33 329.270111 0.000954 0.000000 0.001178 -80.668365 0.001178 329.270111
34 329.270111 0.000954 0.000000 0.001178 -80.668365 0.001178 329.270111
35 329.270111 0.000954 0.000000 0.001178 -80.668320 0.001178 329.270111
[L_Toe3_03]
33 439.137451 -0.001907 0.000954 -179.996323 77.872643 -179.992813 439.137451
34 439.137451 -0.001907 0.000954 -179.996323 77.872597 -179.992813 439.137451
35 439.137451 -0.001907 0.000954 -179.996323 77.872597 -179.992813 439.137451
[planeLockWeightLeft]
33 -0.000954 0.000238 -0.000305 -0.011826 -0.004376 0.005620 0.001029
34 -0.000954 0.000238 -0.000305 -0.011826 -0.004376 0.005620 0.001029
35 -0.000954 0.000238 -0.000305 -0.011826 -0.004376 0.005620 0.001029
[R_Leg01]
33 761.455627 -0.001907 -0.000358 111.809425 -22.297071 15.971605 761.455688
34 761.455627 -0.001907 -0.000358 112.534218 -22.771246 15.186654 761.455688
35 761.455627 -0.001907 -0.000358 112.995346 -23.552172 13.423471 761.455688
[R_Leg02]
33 1441.140625 0.000000 -0.000238 -2.762384 -1.066411 -161.541946 1441.140625
34 1441.140625 0.000000 -0.000238 -2.759083 -1.063104 -161.371643 1441.140625
35 1441.140625 0.000000 -0.000238 -2.785667 -1.084203 -162.267548 1441.140625
[R_Leg03]
33 1686.963989 0.000954 0.001431 0.110233 -0.067011 140.138153 1686.963989
34 1686.963989 0.000954 0.001431 0.110204 -0.067059 140.188126 1686.963989
35 1686.963989 0.000954 0.001431 0.110175 -0.067107 140.238068 1686.963989
[R_Foot]
33 3041.560059 -30.531288 -11.204481 38.220840 -22.136251 54.716946 3041.734131
34 3041.560059 -30.531288 -11.204481 38.435036 -22.112822 54.464256 3041.734131
35 3041.560059 -30.531288 -11.204481 38.974701 -22.017702 54.453781 3041.734131
[planeAlignerRight]
33 -0.635147 -812.270569 -0.364304 0.000000 -89.960434 -90.005180 812.270874
34 -0.635147 -812.270569 -0.364304 0.000000 -89.960434 -90.005180 812.270874
35 -0.635147 -812.270569 -0.364304 0.000000 -89.960434 -90.005180 812.270874
[R_Toe1_01]
33 -188.383347 -224.864899 21.052242 90.478722 3.231926 -161.378860 294.101532
34 -188.383347 -224.864899 21.052242 90.478722 3.231926 -161.378860 294.101532
35 -188.383347 -224.864899 21.052242 90.478722 3.231925 -161.378860 294.101532
[R_Toe2_01]
33 200.637817 -220.002121 -148.787384 -105.368958 18.813929 -49.808262 332.857574
34 200.637817 -220.002121 -148.787384 -105.368950 18.813925 -49.808262 332.857574
35 200.637817 -220.002121 -148.787384 -105.368958 18.813929 -49.808262 332.857574
[R_Toe3_01]
33 188.606735 -220.092957 191.126343 -76.041084 -6.322367 -46.892487 347.192566
34 188.606735 -220.092957 191.126343 -76.041084 -6.322367 -46.892487 347.192566
35 188.606735 -220.092957 191.126343 -76.041084 -6.322367 -46.892487 347.192566
[planeLockWeightRight]
33 -0.000477 0.000000 0.000000 -0.011823 -0.004379 -0.000027 0.000477
34 -0.000477 0.000000 0.000000 -0.011823 -0.004379 -0.000027 0.000477
35 -0.000477 0.000000 0.000000 -0.011823 -0.004379 -0.000027 0.000477
[R_Toe1_02]
33 413.762085 0.000477 -0.000119 0.001401 -23.743965 0.001401 413.762085
34 413.762085 0.000477 -0.000119 0.001401 -23.743965 0.001401 413.762085
35 413.762085 0.000477 -0.000119 0.001401 -23.743965 0.001401 413.762085
[R_Toe1_03]
33 464.317810 0.000000 0.001088 0.008919 74.877419 0.008919 464.317810
34 464.317810 0.000000 0.001088 0.008919 74.877419 0.008919 464.317810
35 464.317810 0.000000 0.001088 0.008919 74.877388 0.008919 464.317810
[R_Toe2_02]
33 342.234741 -0.000954 0.000238 0.001188 -72.308594 0.001188 342.234741
34 342.234741 -0.000954 0.000238 0.001188 -72.308510 0.001188 342.234741
35 342.234741 -0.000954 0.000238 0.001188 -72.308479 0.001188 342.234741
[R_Toe2_03]
33 420.210846 0.000715 -0.000268 0.028218 85.232597 0.028218 420.210846
34 420.210846 0.000715 -0.000268 0.028218 85.232597 0.028218 420.210846
35 420.210846 0.000715 -0.000268 0.028218 85.232521 0.028218 420.210846
[R_Toe3_02]
33 329.270355 -0.000477 -0.000954 0.001177 -80.843628 0.001177 329.270355
34 329.270355 -0.000477 -0.000954 0.001177 -80.843628 0.001177 329.270355
35 329.270355 -0.000477 -0.000954 0.001177 -80.843651 0.001177 329.270355
[R_Toe3_03]
33 439.137939 0.000238 0.001431 -179.996658 77.075317 -179.993134 439.137939
34 439.137939 0.000238 0.001431 -179.996658 77.075333 -179.993134 439.137939
35 439.137939 0.000238 0.001431 -179.996658 77.075394 -179.993134 439.137939
[Rear_Leg02]
33 1162.777710 -0.029802 0.005960 0.095996 0.020960 -105.123116 1162.777710
34 1162.777710 -0.029802 0.005960 0.098635 0.028036 -104.752480 1162.777710
35 1162.777710 -0.029802 0.005960 0.097821 0.023550 -104.583412 1162.777710
[Rear_Leg03]
33 607.192505 -0.013351 -0.073195 0.006595 -0.001697 57.075062 607.192505
34 607.192505 -0.013351 -0.073195 0.006597 -0.001690 56.955490 607.192505
35 607.192505 -0.013351 -0.073195 0.006599 -0.001683 56.835922 607.192505
[Rear_Leg04]
33 995.874512 -0.020504 -0.011921 -0.036598 -0.015184 44.933624 995.874573
34 995.874512 -0.020504 -0.011921 -0.036567 -0.015259 44.698238 995.874573
35 995.874512 -0.020504 -0.011921 -0.036535 -0.015334 44.462852 995.874573
[Rear_Foot]
33 3096.176270 -0.067472 -0.041425 -179.792511 78.866875 30.552652 3096.176270
34 3096.176270 -0.067472 -0.041425 -179.787323 79.039459 30.527721 3096.176270
35 3096.176270 -0.067472 -0.041425 -179.782471 79.212105 30.502499 3096.176270
[planeAlignerCenter]
33 0.350077 0.966311 -838.790894 0.000009 0.000003 -179.999985 838.791565
34 0.350077 0.966311 -838.790894 0.000009 0.000003 -179.999985 838.791565
35 0.350077 0.966311 -838.790894 0.000009 0.000003 -179.999985 838.791565
[Rear_Toe1_01]
33 0.653352 83.966492 -371.173737 0.291418 41.924767 90.410416 380.553192
34 0.653352 83.966492 -371.173737 0.291464 41.924751 90.410454 380.553192
35 0.653352 83.966492 -371.173737 0.291510 41.924709 90.410484 380.553192
[Rear_Toe2_01]
33 178.200760 -294.826019 -362.060547 -2.184783 34.544666 -64.362396 499.765686
34 178.200760 -294.826019 -362.060547 -2.184751 34.544624 -64.362373 499.765686
35 178.200760 -294.826019 -362.060547 -2.184719 34.544579 -64.362350 499.765686
[Rear_Toe3_01]
33 -153.359680 -308.780914 -362.060852 3.870838 33.514248 -112.318695 499.952881
34 -153.359680 -308.780914 -362.060852 3.870838 33.514248 -112.318695 499.952881
35 -153.359680 -308.780914 -362.060852 3.870838 33.514248 -112.318695 499.952881
[planeLockWeightCenter]
33 -0.000062 0.000238 0.000000 -0.011814 -0.004373 -0.000015 0.000246
34 -0.000062 0.000238 0.000000 -0.011814 -0.004373 -0.000015 0.000246
35 -0.000062 0.000238 0.000000 -0.011814 -0.004373 -0.000015 0.000246
[Rear_Toe1_02]
33 379.707825 0.194073 0.000477 -0.000242 -31.672421 0.006934 379.707855
34 379.707825 0.194073 0.000477 -0.000242 -31.672462 0.006934 379.707855
35 379.707825 0.194073 0.000477 -0.000242 -31.672510 0.006934 379.707855
[Rear_Toe1_03]
33 500.129700 0.165701 0.000119 -0.000106 51.872097 0.007293 500.129761
34 500.129700 0.165701 0.000119 -0.000106 51.872231 0.007293 500.129761
35 500.129700 0.165701 0.000119 -0.000106 51.872379 0.007293 500.129761
[Rear_Toe2_02]
33 340.494507 0.000238 -0.000954 0.001192 -69.854523 0.001192 340.494507
34 340.494507 0.000238 -0.000954 0.001192 -69.854523 0.001192 340.494507
35 340.494507 0.000238 -0.000954 0.001192 -69.854523 0.001192 340.494507
[Rear_Toe2_03]
33 433.103577 0.000000 0.000238 0.006694 69.804291 0.006694 433.103546
34 433.103577 0.000000 0.000238 0.006694 69.804291 0.006694 433.103546
35 433.103577 0.000000 0.000238 0.006694 69.804291 0.006694 433.103546
[Rear_Toe3_02]
33 340.494141 -0.000358 -0.000477 0.008285 -67.268761 -0.009458 340.494171
34 340.494141 -0.000358 -0.000477 0.008285 -67.268761 -0.009458 340.494171
35 340.494141 -0.000358 -0.000477 0.008285 -67.268761 -0.009458 340.494171
[Rear_Toe3_03]
33 433.103577 0.001431 -0.000238 -0.000971 65.948143 -0.004546 433.103546
34 433.103577 0.001431 -0.000238 -0.000971 65.948181 -0.004546 433.103546
35 433.103577 0.001431 -0.000238 -0.000971 65.948235 -0.004546 433.103546
[Back_Bone]
33 1312.175781 -701.934692 0.000954 0.000023 -0.000007 -85.606667 1488.125488
34 1312.175781 -701.934692 0.000954 0.000023 -0.000007 -85.606667 1488.125488
35 1312.175781 -701.934692 0.000954 0.000023 -0.000007 -85.606667 1488.125488
[Head]
33 1406.159424 809.709290 0.001431 0.001357 -2.189402 17.166126 1622.625488
34 1406.159424 809.709290 0.001431 -0.001056 -3.052211 17.814882 1622.625488
35 1406.159424 809.709290 0.001431 0.000386 -3.714309 17.968184 1622.625488
[Motor_Bone]
33 1158.364380 -417.834747 0.000477 -9.917056 -4.582453 -101.784897 1231.419434
34 1158.364380 -417.834747 0.000477 -10.287119 -3.918848 -101.931641 1231.419434
35 1158.364380 -417.834747 0.000477 -10.079403 -2.205810 -102.052185 1231.419434
[Ping_Mechanism]
33 1233.996338 -432.121796 7.813364 0.000103 -0.000053 82.120995 1307.492676
34 1233.981567 -432.304993 7.871246 0.000103 -0.000053 82.120995 1307.539673
35 1233.966919 -432.488159 7.929128 0.000103 -0.000053 82.120995 1307.586792
[BN_LookIK]
33 193.241119 1380.371704 -0.002861 0.000000 89.965736 -31.038179 1393.832153
34 193.241119 1380.371704 -0.002861 0.000000 89.965736 -31.038179 1393.832153
35 193.241119 1380.371704 -0.002861 0.000000 89.965736 -31.038179 1393.832153
[bottomMouth]
33 -435.092926 615.759399 -0.000954 -0.000022 0.000016 73.527184 753.966492
34 -435.092926 615.759399 -0.000954 -0.000022 0.000016 73.527184 753.966492
35 -435.092926 615.759399 -0.000954 -0.000022 0.000016 73.527184 753.966492
[L_Mouth01]
33 554.440979 7.658243 838.222046 150.204178 23.759130 109.605339 1005.027161
34 554.440979 7.658243 838.222046 150.204178 23.759130 109.605339 1005.027161
35 554.440979 7.658243 838.222046 150.204178 23.759130 109.605339 1005.027161
[L_mouthFront]
33 551.629089 934.514771 339.150421 0.000081 2.804060 79.119301 1136.941284
34 551.629089 934.514771 339.150421 0.000081 2.804060 79.119301 1136.941284
35 551.629089 934.514771 339.150421 0.000081 2.804060 79.119301 1136.941284
[mouthGun]
33 55.332661 1627.420898 0.000000 0.000023 0.000009 -11.038128 1628.361328
34 55.332661 1627.420898 0.000000 0.000023 0.000009 -11.038128 1628.361328
35 55.332661 1627.420898 0.000000 0.000023 0.000009 -11.038128 1628.361328
[R_Mouth01]
33 554.442383 7.659197 -838.223938 29.795891 -23.759109 109.605331 1005.029541
34 554.442383 7.659197 -838.223938 29.795891 -23.759109 109.605331 1005.029541
35 554.442383 7.659197 -838.223938 29.795891 -23.759109 109.605331 1005.029541
[R_mouthFront]
33 551.629089 934.514282 -339.151367 0.000029 -2.803930 79.119133 1136.941162
34 551.629089 934.514282 -339.151367 0.000029 -2.803930 79.119133 1136.941162
35 551.629089 934.514282 -339.151367 0.000029 -2.803930 79.119133 1136.941162
[TopMouth]
33 461.269867 -56.106091 -0.008583 -0.000059 -0.000268 92.025169 464.669525
34 461.269867 -56.106091 -0.008583 -0.000059 -0.000268 92.025169 464.669525
35 461.269867 -56.106091 -0.008583 -0.000059 -0.000268 92.025169 464.669525
[weapon_bone]
33 -987.239868 1448.372803 0.001431 0.000000 89.965736 -31.038221 1752.833740
34 -987.239868 1448.372803 0.001431 0.000000 89.965736 -31.038221 1752.833740
35 -987.239868 1448.372803 0.001431 0.000000 89.965736 -31.038221 1752.833740
